<svg width="18" height="16" viewBox="0 0 18 16" fill="none" xmlns="http://www.w3.org/2000/svg">
<path d="M7.33341 15.4993L10.6667 12.166H15.6667C16.1251 12.166 16.5176 12.3291 16.8442 12.6552C17.1704 12.9818 17.3334 13.3743 17.3334 13.8327C17.3334 14.291 17.1704 14.6835 16.8442 15.0102C16.5176 15.3363 16.1251 15.4993 15.6667 15.4993H7.33341ZM2.33341 13.8327H3.50008L10.6876 6.64518L9.52091 5.47852L2.33341 12.666V13.8327ZM14.2501 5.43685L10.7084 1.93685L11.8751 0.770182C12.1945 0.450738 12.587 0.291016 13.0526 0.291016C13.5176 0.291016 13.9098 0.450738 14.2292 0.770182L15.3959 1.93685C15.7154 2.25629 15.882 2.64185 15.8959 3.09352C15.9098 3.54463 15.757 3.9299 15.4376 4.24935L14.2501 5.43685ZM1.50008 15.4993C1.26397 15.4993 1.06619 15.4193 0.906748 15.2593C0.746748 15.0999 0.666748 14.9021 0.666748 14.666V12.3118C0.666748 12.2007 0.687581 12.0932 0.729248 11.9893C0.770915 11.8849 0.833415 11.791 0.916748 11.7077L9.50008 3.12435L13.0417 6.66602L4.45841 15.2493C4.37508 15.3327 4.28147 15.3952 4.17758 15.4368C4.07314 15.4785 3.96536 15.4993 3.85425 15.4993H1.50008Z" fill="#7A7A7A"/>
</svg>
